<?xml version="1.0" encoding="utf-8"?>
<!-- Generator: Adobe Illustrator 27.0.0, SVG Export Plug-In . SVG Version: 6.00 Build 0)  -->
<svg version="1.1" id="Слой_1" xmlns="http://www.w3.org/2000/svg" xmlns:xlink="http://www.w3.org/1999/xlink" x="0px" y="0px"
	 viewBox="0 0 164 164" style="enable-background:new 0 0 164 164;" xml:space="preserve">
<style type="text/css">
	.st0{fill:#7B7B7B;}
</style>
<g>
	<g>
		<path class="st0" d="M166.8,71.3c0,10,0,20,0,30c-3.4,5.1-4.3,11.2-6.6,16.7c-9.2,21.9-25.2,36.8-47.3,45.1
			c-4.7,1.8-9.7,2.9-14.6,4.2c-8.6,0-17.2,0-25.8,0c-0.3-0.3-0.6-0.8-1-0.9c-26-4.5-45-19.4-57.4-42.1C3.6,105.6,1.5,84.9,7.6,64.1
			c9-30.6,29.7-49.9,60-57.3c18.3-4.4,37-2.4,54.3,6.5c8.1,4.2,14.6,10.3,21.3,16.4c9,8.3,14.3,18.4,18.7,29.4
			C163.6,63.2,162.4,68.4,166.8,71.3z M17.4,86.2c-0.6,19.3,6.4,36,20.6,49.3c13.8,12.8,29.5,21.1,49.4,20
			c35.8-2,66.8-30.5,66.6-69.9c-0.1-37.1-31.5-69.4-70.5-68.2C47.8,18.3,16.9,48.4,17.4,86.2z"/>
		<path class="st0" d="M111.7,127.4c-2.2-0.1-3.2-1.5-4.4-2.7c-6.8-6.8-13.7-13.6-20.3-20.5c-2.2-2.3-3.3-2.2-5.4,0
			c-6.4,6.7-13.1,13.2-19.6,19.9c-2.4,2.5-4.4,3.2-6.8,0c-1.3-1.7-3-3.1-4.5-4.6c-7-7-7-7,0.2-14.2c5.4-5.4,10.7-10.9,16.2-16.2
			c2-1.9,2.1-3,0.1-5c-6.7-6.5-13.1-13.2-19.8-19.7c-3.2-3-3.8-5.6,0-8.5c3.7-3,6.3-9,10.5-9.2c4.3-0.2,7.1,5.8,10.5,9
			c4.2,4,8.4,8,12.3,12.4c2.6,3,4.2,3.4,7.2,0.2c6.5-7.1,13.6-13.6,20.2-20.7c2.8-3,4.7-2.6,7.1,0.2c2.3,2.6,4.7,5.2,7.4,7.4
			c3.8,3,2.7,5.3-0.1,8.1c-6.6,6.5-13,13.3-19.8,19.7c-2.9,2.7-3.3,4.2-0.2,7.2c6.9,6.4,13.3,13.4,20.2,20c2.7,2.6,2.8,4.4-0.1,6.9
			c-3.1,2.7-5.9,5.8-8.8,8.8C113,126.4,112.2,126.9,111.7,127.4z"/>
	</g>
</g>
</svg>
