<?xml version="1.0" encoding="utf-8"?>
<!-- Generator: Adobe Illustrator 27.0.0, SVG Export Plug-In . SVG Version: 6.00 Build 0)  -->
<svg version="1.1" id="Слой_1" xmlns="http://www.w3.org/2000/svg" xmlns:xlink="http://www.w3.org/1999/xlink" x="0px" y="0px"
	 viewBox="0 0 164 164" style="enable-background:new 0 0 164 164;" xml:space="preserve">
<style type="text/css">
	.st0{fill:#464644;}
</style>
<g>
	<g>
		<path class="st0" d="M3.03,95.11c0-6.29,0-12.59,0-18.88c1.09-0.26,0.9-1.16,0.98-1.95c1.81-16.81,8.89-31.31,20.3-43.51
			c8.57-9.16,18.3-16.44,30.73-20.76c8.95-3.11,17.77-5.96,26.99-5.94c20.51,0.03,38.8,5.94,54.81,20
			c13.93,12.23,22.57,26.62,26.51,44.42c0.31,1.38-0.89,4.78,2.68,4.77c0,7.29,0,14.58,0,21.87c-1.8,0.49-1.85,1.87-2.03,3.43
			c-0.71,6.19-2.46,12.18-4.98,17.81c-6.05,13.48-14.77,24.57-26.94,33.55c-10.41,7.68-21.46,12.33-33.87,15
			c-3.57,0.77-7.45-0.5-10.7,1.78c-1.99,0-3.98,0-5.96,0c-3.47-2.18-7.49-1.05-11.24-1.77c-29.32-5.65-49.33-22.5-61.33-49.49
			C6.07,108.89,5.39,101.76,3.03,95.11z M152.44,84.09c0.2-36.21-30.35-67.67-68.45-67.51c-35.44,0.16-68.76,28.58-68.27,69.13
			c0.45,37.24,31.12,68.39,69.15,67.98C120.89,153.31,153.57,123.24,152.44,84.09z"/>
		<path class="st0" d="M59.75,40.43c1.26-0.2,2.3,0.76,3.39,1.43c5.58,3.41,10.91,7.11,16.95,9.88c5.82,2.67,11.45,5.98,16.68,9.98
			c2.43,1.86,6.34,2.23,9.07,4.38c8.56,6.74,19.12,9.95,28.12,15.95c4.12,2.75,4.45,3.46,0.04,6.07
			c-9.98,5.91-20.06,11.67-30.16,17.37c-13.79,7.78-27.65,15.44-41.45,23.19c-4.07,2.29-5.67,1.5-5.68-3.18
			c-0.04-26.99-0.01-53.97-0.02-80.96C56.68,42.45,56.65,40.46,59.75,40.43z"/>
	</g>
</g>
</svg>
