<?xml version="1.0" encoding="utf-8"?>
<!-- Generator: Adobe Illustrator 27.0.0, SVG Export Plug-In . SVG Version: 6.00 Build 0)  -->
<svg version="1.1" id="Слой_1" xmlns="http://www.w3.org/2000/svg" xmlns:xlink="http://www.w3.org/1999/xlink" x="0px" y="0px"
	 viewBox="0 0 164 164" style="enable-background:new 0 0 164 164;" xml:space="preserve">
<style type="text/css">
	.st0{fill:#454543;}
</style>
<g>
	<g>
		<path class="st0" d="M166.79,71.3c0,10,0,20,0,30c-3.44,5.06-4.31,11.16-6.61,16.65c-9.19,21.91-25.23,36.84-47.34,45.11
			c-4.74,1.77-9.74,2.85-14.63,4.24c-8.61,0-17.23,0-25.84,0c-0.33-0.3-0.62-0.82-0.98-0.88c-26-4.54-45.01-19.37-57.44-42.05
			c-10.3-18.81-12.4-39.45-6.32-60.25c8.96-30.61,29.67-49.93,60.04-57.3c18.31-4.44,37.04-2.44,54.33,6.52
			c8.06,4.17,14.58,10.26,21.27,16.39c9.03,8.27,14.26,18.37,18.7,29.4C163.6,63.16,162.41,68.39,166.79,71.3z M17.43,86.17
			c-0.65,19.31,6.41,36.03,20.64,49.28c13.8,12.84,29.46,21.08,49.39,19.99c35.83-1.97,66.77-30.54,66.61-69.91
			c-0.15-37.13-31.52-69.37-70.48-68.23C47.77,18.35,16.89,48.44,17.43,86.17z"/>
		<path class="st0" d="M111.74,127.36c-2.23-0.12-3.25-1.51-4.41-2.68c-6.79-6.83-13.68-13.56-20.31-20.54
			c-2.15-2.26-3.33-2.21-5.45,0.02c-6.41,6.74-13.13,13.17-19.58,19.86c-2.44,2.53-4.4,3.16-6.79,0.04c-1.3-1.7-3.02-3.07-4.54-4.6
			c-6.95-6.99-6.95-7,0.17-14.16c5.39-5.41,10.7-10.91,16.22-16.18c1.99-1.9,2.12-3.01,0.07-5c-6.68-6.46-13.07-13.23-19.75-19.7
			c-3.15-3.04-3.76-5.56-0.03-8.55c3.73-2.99,6.31-9.03,10.52-9.24c4.35-0.23,7.06,5.8,10.52,9.04c4.24,3.97,8.42,8.03,12.26,12.39
			c2.63,2.99,4.25,3.4,7.21,0.18c6.5-7.1,13.64-13.6,20.2-20.65c2.83-3.04,4.68-2.63,7.12,0.17c2.28,2.61,4.66,5.22,7.36,7.36
			c3.75,2.98,2.68,5.34-0.14,8.12c-6.62,6.52-12.99,13.32-19.75,19.69c-2.87,2.7-3.34,4.23-0.15,7.17
			c6.94,6.42,13.35,13.42,20.15,19.99c2.65,2.56,2.77,4.4-0.06,6.87c-3.12,2.71-5.89,5.83-8.84,8.75
			C113.04,126.38,112.25,126.94,111.74,127.36z"/>
	</g>
</g>
</svg>
