<?xml version="1.0" encoding="utf-8"?>
<!-- Generator: Adobe Illustrator 27.0.0, SVG Export Plug-In . SVG Version: 6.00 Build 0)  -->
<svg version="1.1" id="Слой_1" xmlns="http://www.w3.org/2000/svg" xmlns:xlink="http://www.w3.org/1999/xlink" x="0px" y="0px"
	 viewBox="0 0 164 164" style="enable-background:new 0 0 164 164;" xml:space="preserve">
<style type="text/css">
	.st0{fill:#454543;}
</style>
<g>
	<g>
		<path class="st0" d="M162.62,67.42c0,10.93,0,21.87,0,32.8c-2.88,4.44-3.55,9.75-5.56,14.48c-9.34,21.93-25.42,36.95-47.86,45.02
			c-4.62,1.66-9.44,2.76-14.17,4.12c-8.61,0-17.23,0-25.84,0c-5.96-2.39-12.41-3.18-18.3-5.91C22.2,144.66,4.96,122.48,1.91,91.07
			c-2.7-27.87,6.85-51.32,28.97-69.87C41.07,12.65,52.29,7.11,64.57,4.28c14.39-3.31,29.18-2.44,43.52,2.13
			c12.43,3.96,22.29,11.45,31.71,20.38c9.08,8.61,14.82,18.59,19.07,30.06C160.16,60.34,159.5,64.6,162.62,67.42z M150.79,83.37
			c0.7-37.36-30.48-67.85-66.59-68.62C45.57,13.91,14.83,45.1,14.14,80.98c-0.37,19.5,5.39,36.47,19.49,49.92
			c12.08,11.53,25.65,20.36,43.38,21.06C119.67,153.64,151.27,121.16,150.79,83.37z"/>
		<path class="st0" d="M78.14,83.33c0,11.92-0.16,23.85,0.08,35.76c0.09,4.45-1.64,5.85-5.82,5.73c-6.45-0.19-12.92-0.13-19.37-0.01
			c-3.22,0.06-4.82-0.84-4.8-4.49c0.12-24.67,0.11-49.35,0.02-74.02c-0.01-3.46,1.27-4.75,4.67-4.68c6.79,0.14,13.58,0.13,20.37,0
			c3.58-0.07,4.98,1.23,4.92,4.95C78.03,58.83,78.14,71.08,78.14,83.33z"/>
		<path class="st0" d="M87.05,83.12c0-12.08,0.19-24.16-0.1-36.23c-0.1-4.32,1.47-5.43,5.43-5.29c6.28,0.23,12.58,0.21,18.86,0.02
			c3.99-0.12,5.65,1.34,5.63,5.46c-0.1,24.16-0.1,48.31,0,72.47c0.02,3.82-1.31,5.37-5.21,5.26c-6.61-0.19-13.24-0.15-19.85,0.05
			c-3.72,0.11-4.87-1.38-4.82-5C87.15,107.61,87.05,95.36,87.05,83.12z"/>
	</g>
</g>
</svg>
