<?xml version="1.0" encoding="utf-8"?>
<!-- Generator: Adobe Illustrator 27.0.0, SVG Export Plug-In . SVG Version: 6.00 Build 0)  -->
<svg version="1.1" id="Слой_1" xmlns="http://www.w3.org/2000/svg" xmlns:xlink="http://www.w3.org/1999/xlink" x="0px" y="0px"
	 viewBox="0 0 164 164" style="enable-background:new 0 0 164 164;" xml:space="preserve">
<style type="text/css">
	.st0{fill:#7B7B7B;}
</style>
<g>
	<g>
		<path class="st0" d="M3,95.1c0-6.3,0-12.6,0-18.9c1.1-0.3,0.9-1.2,1-1.9C5.8,57.5,12.9,43,24.3,30.8C32.9,21.6,42.6,14.3,55,10
			c9-3.1,17.8-6,27-5.9c20.5,0,38.8,5.9,54.8,20c13.9,12.2,22.6,26.6,26.5,44.4c0.3,1.4-0.9,4.8,2.7,4.8c0,7.3,0,14.6,0,21.9
			c-1.8,0.5-1.9,1.9-2,3.4c-0.7,6.2-2.5,12.2-5,17.8c-6.1,13.5-14.8,24.6-26.9,33.5c-10.4,7.7-21.5,12.3-33.9,15
			c-3.6,0.8-7.4-0.5-10.7,1.8c-2,0-4,0-6,0c-3.5-2.2-7.5-1.1-11.2-1.8C41,159.3,21,142.4,9,115.4C6.1,108.9,5.4,101.8,3,95.1z
			 M152.4,84.1c0.2-36.2-30.3-67.7-68.4-67.5c-35.4,0.2-68.8,28.6-68.3,69.1c0.5,37.2,31.1,68.4,69.2,68
			C120.9,153.3,153.6,123.2,152.4,84.1z"/>
		<path class="st0" d="M59.8,40.4c1.3-0.2,2.3,0.8,3.4,1.4c5.6,3.4,10.9,7.1,16.9,9.9c5.8,2.7,11.4,6,16.7,10
			c2.4,1.9,6.3,2.2,9.1,4.4C114.4,72.8,125,76,134,82c4.1,2.8,4.4,3.5,0,6.1c-10,5.9-20.1,11.7-30.2,17.4
			c-13.8,7.8-27.7,15.4-41.5,23.2c-4.1,2.3-5.7,1.5-5.7-3.2c0-27,0-54,0-81C56.7,42.4,56.7,40.5,59.8,40.4z"/>
	</g>
</g>
</svg>
